<?xml version="1.0" encoding="utf-8"?>
<!-- Generator: Adobe Illustrator 14.0.0, SVG Export Plug-In . SVG Version: 6.00 Build 43363)  -->
<!DOCTYPE svg PUBLIC "-//W3C//DTD SVG 1.1//EN" "http://www.w3.org/Graphics/SVG/1.1/DTD/svg11.dtd">
<svg version="1.1" id="Capa_1" xmlns="http://www.w3.org/2000/svg" xmlns:xlink="http://www.w3.org/1999/xlink" x="0px" y="0px"
	 width="147.797px" height="148.436px" viewBox="0 0 147.797 148.436" enable-background="new 0 0 147.797 148.436"
	 xml:space="preserve">
<g id="Capa_2" display="none">
</g>
<g id="Capa_1_1_">
	<path fill="#FFFFFF" d="M122.95,123.289c-3.007-0.736-5.527-1.434-7.666-3.813c-0.818-0.911-1.062-1.764-1.675-2.771
		c-0.181-0.298-0.674-2.16-0.907-2.16c0.116-0.951-0.984-1.923-0.654-2.84c-0.297,0-0.685-1.795-0.75-2.024
		c-0.698-2.428-1.323-4.568-2.161-6.918c-0.537-1.506-0.976-3.036-1.433-4.565c-0.312-1.036-0.906-3.838-1.392-4.285
		c-0.687-1.061-0.513-2.462-1.259-3.494c-0.114,0-0.811-2.317-0.852-2.437c-0.859-2.506-1.598-5.21-2.699-7.609
		c-0.57-1.245-0.944-2.637-1.371-3.938c-0.373-1.134-0.519-2.602-1.281-3.552c0.197-0.08-6.042-17.986-6.508-19.124
		c-1.579-3.863-2.729-7.959-4.104-11.905c-1.448-4.155-2.858-8.328-4.178-12.525c-0.587-1.868-1.521-3.593-2.003-5.494
		c-0.439-0.472-0.648-1.586-0.875-2.188c-0.396-1.059-0.626-2.16-1.035-3.217c-0.204-0.527-0.202-1.264-0.628-1.682
		c-1.074-0.056-2.149-0.038-3.226-0.035c-2.243,0.005-4.497,0.058-6.736-0.017c-1.589-0.052-3.162,0.343-4.742,0.207
		c-0.351-0.03-1.258-0.14-1.183,0.462c0.108,0.878,1.167,0.791,1.801,1.099c1.501,0.731,2.761,1.575,3.547,3.14
		c0.89,1.771,0.172,3.838-0.53,5.547c-2.788,6.782-5.625,13.612-7.934,20.521c-1.222,3.658-2.945,7.146-4.261,10.767
		c-1.361,3.744-3.037,7.377-4.357,11.152c-0.865,2.474-1.926,4.864-2.705,7.329c-0.832,2.631-1.965,5.03-2.936,7.605
		c-2.124,5.634-3.9,11.446-6.576,16.93c-0.831,1.7-1.499,3.491-2.144,5.269c-0.282,0.774-0.613,1.539-0.877,2.319
		c-0.071,0.208-0.571,1.465-0.596,1.285c-0.27,1.406-1.061,2.712-1.601,4.03c-0.144,0.35-0.885,2.711-1.314,2.711
		c-0.152,1.441-2.061,2.833-3.189,3.459c-1.824,1.013-4.001,1.228-5.977,1.784c-0.829-0.313-0.756,2.332-0.765,2.729
		c-0.018,0.903-0.22,1.188,0.742,1.188c0.04,0.167,1.218,0.114,1.351,0.113c1.708-0.011,3.48-0.118,5.22-0.183
		c3.388-0.125,6.789-0.015,10.177,0.079c2.066,0.057,4.133,0.122,6.198,0.201c0.952,0.036,1.904,0.081,2.856,0.082
		c0.486,0,0.973-0.007,1.458,0.02c0.141-0.516-0.137-1.023-0.052-1.538c0.124-0.762,0.021-1.519,0.003-2.271
		c-0.015-0.619-1.078-0.357-1.461-0.372c-1.171-0.045-2.544-0.285-3.633-0.685c-2.237-0.817-4.515-2.675-4.209-5.236
		c0.115-0.96,1.533-5.913,1.49-5.937c0.386-0.344,0.632-1.266,0.788-1.753c0.244-0.766,0.617-1.449,0.895-2.201
		c0.852-1.796,1.454-3.7,2.166-5.554c1.012-2.635,2.137-5.556,3.254-8.401c0.96-2.443,2.038-4.739,2.889-7.212
		c0.208-0.604,0.545-1.673,0.901-2.429c0.215-0.455,0.004-1.013,0.618-1.079c0.599-0.063,1.352-0.023,2.023,0.008
		c4.492,0.216,9.07,0.036,13.577,0.064c3.957,0.025,7.917-0.014,11.871,0.091c1.795,0.048,3.59,0.103,5.385,0.092
		c0.826-0.005,1.658-0.005,2.482-0.071c0.818-0.067,0.789,0.649,1.041,1.263c0.47,1.139,0.752,2.338,1.041,3.529
		c0.182,0.741,0.603,1.419,0.844,2.156c0.394,1.194,0.642,2.528,1.078,3.76c0.672,1.896,1.391,3.768,1.992,5.688
		c1.551,4.962,3.824,10.347,4.84,15.269c0.465,2.253,0.262,3.95-0.627,5.889c-0.301,0.657-1.047,1.367-1.599,1.82
		c-0.771,0.635-2.278,1.754-3.306,1.674c0.322,0.485-2.149,0.321-2.471,0.575c-0.153,0.118-0.002,1.9,0,2.169
		c0.006,1.129,0.011,1.301,1.283,1.249c1.189-0.05,2.2,0.008,3.367,0.049c3.411,0.118,6.874-0.074,10.258,0.109
		c1.563,0.085,3.174-0.157,4.705-0.054c1.684,0.115,3.487,0.276,5.164,0.174c0.862-0.053,5.412,0.491,5.419-0.412
		C123.245,126.268,123.844,123.53,122.95,123.289 M87.372,76.2c-0.527,0.17-1.125,0.079-1.662,0.019
		c-0.621-0.067-1.234,0.146-1.855,0.054c-0.941-0.146-2.063-0.173-3.012-0.111c-2.59,0.165-5.314-0.117-7.939-0.045
		c-2.711,0.074-5.418-0.046-8.129,0.038c-1.31,0.04-2.621,0.008-3.931,0.06c-1.337,0.054-2.719,0.304-4.044,0.002
		c2.858-7.559,5.517-15.174,8.183-22.798c0.671-1.918,1.325-3.847,2.162-5.701c0.936-2.074,1.536-4.256,2.398-6.356
		c0.792-1.931,1.12-4.076,2.033-5.947c0.845-1.729,1.515-3.622,2.258-5.397c0.494,0.481,0.152,1.362,0.651,1.845
		c0.155,0.928,0.532,1.803,0.828,2.69c0.705,2.12,1.319,4.259,1.97,6.396c1.329,4.365,2.866,8.68,4.285,13.017
		c1.398,4.275,2.74,8.555,4.163,12.821c0.646,1.938,1.058,4.043,1.903,5.905c0.324,0.714,0.316,1.223,0.602,1.926
		c0.141,0.347,0.837,1.358,0.824,1.714C88.512,76.224,87.877,76.515,87.372,76.2 M93.235,123.797c-0.107,0.001-0.13-0.031-0.068-0.1
		C93.229,123.675,93.317,123.715,93.235,123.797 M99.886,109.399l-0.019-0.036C99.868,109.363,99.868,109.399,99.886,109.399
		 M1.125,65.38v-0.019C1.125,65.362,1.112,65.38,1.125,65.38 M148.491,5.112c0.247-0.461,0.038-1.534,0.059-2.058
		c0.027-0.677,0.156-1.603-0.119-2.236c-0.563-1.298-2.424,0.028-3.322-0.597c-0.617-0.429-2.49,0.081-3.184,0.044
		c-1.777-0.097-3.573-0.112-5.356-0.103c-1.729,0.01-3.491-0.077-5.222,0.061c-0.578-0.139-1.403-0.104-1.997-0.055
		c-0.763,0.063-1.603-0.265-2.336,0.055c-0.21-0.121-1.084-0.083-1.382-0.11c-0.979,0-1.965,0.068-2.944,0.042
		c-0.812-0.022-1.627,0.163-2.421,0.129c-0.283-0.012-1.809-0.096-1.682-0.286c-0.523,0.416-1.643,0.101-2.262,0.105
		c-1.046,0.009-2.092,0-3.138,0.003c-2.276,0.007-4.556-0.068-6.829,0.01c-3.867,0.133-7.859,0.134-11.701-0.03
		c-1.578-0.067-3.203-0.077-4.802-0.067c-0.724,0.004-1.377,0.204-2.11,0.157c-1.113-0.069-2.267-0.062-3.382-0.019
		c-4.198,0.163-8.458-0.048-12.67-0.066c-4.425-0.019-8.851,0.012-13.276-0.002c-2.083-0.006-4.18,0.229-6.263,0.124
		c-0.873-0.043-1.785,0.22-2.639,0.026c-0.48-0.108-1.746-0.352-2.165-0.008c-0.25,0.207-1.134-0.085-1.431-0.111
		c-0.861-0.074-1.774-0.005-2.643-0.03c-1.69-0.047-3.597,0.402-5.241,0.083c-1.582-0.306-3.522-0.115-5.135-0.088
		C32.351,0.094,31.22-0.094,30.795,0.3c-0.269,0.25-1.554-0.239-2.104-0.001c-0.53,0.229-0.871-0.229-1.453-0.23
		c-0.649-0.001-1.211,0.118-1.87,0.049c-1.653-0.174-3.747,0.413-5.253-0.044c-0.558-0.168-1.593,0.114-2.209,0.092
		c-0.917-0.033-1.882,0.079-2.787-0.063c-1.868-0.295-3.924,0.077-5.811,0.012c-1.56-0.053-3.185,0.052-4.762-0.08
		C3.82-0.027,3.097,0.113,2.369,0.049c-0.977-0.086-1.15,0.41-1.134,1.322c0.073,4.038,0.043,8.063-0.03,12.099
		c-0.158,8.823-0.069,17.686-0.041,26.509c0.014,4.308,0.051,8.625-0.037,12.933c-0.062,3.016,0.133,5.691-0.017,8.625
		c-0.182,3.555,0.13,7.142,0.034,10.699c-0.092,3.383-0.104,6.743-0.042,10.111c0.069,3.704-0.259,7.397,0.031,11.079
		c-0.27,1.943,0.034,3.94,0.01,5.896c-0.029,2.326,0.038,4.654-0.009,6.979c-0.15,7.488,0.171,15.096-0.036,22.761
		c-0.113,4.207,0.069,8.425,0.043,12.634c-0.012,1.961-0.254,4.01-0.013,5.96c0.115,0.926,3.31,0.354,3.8,0.377
		c2.768,0.12,5.552,0.124,8.31,0.105c3.055-0.021,6.106,0.074,9.161,0.04c5.279-0.061,10.563,0.033,15.832-0.015
		c2.633-0.022,5.265,0.003,7.883,0.003c2.54,0,5.135-0.109,7.684-0.025c2.647,0.088,5.268,0.021,7.917,0.06
		c1.213,0.017,2.454,0.151,3.667,0.063c0.656-0.048,3.636,0.221,3.797-0.098c0.225,0.339,1.12,0.087,1.434,0.047
		c0.904-0.112,1.89-0.037,2.799-0.018c2.215,0.047,4.436,0.072,6.651,0.027c3.846-0.078,7.68,0.141,11.516,0.059
		c2.137-0.046,4.281,0.051,6.42,0.032c0.543-0.005,1.084-0.009,1.625-0.009c0.334-0.006,0.742-0.382,1.051-0.31
		c0.613,0.142,0.884,0.467,1.625,0.157c0.711-0.298,0.716,0.16,1.39,0.106c0.25-0.021,0.697-0.312,0.929-0.193
		c0.264,0.136,0.336,0.261,0.67,0.29c1.944,0.169,4.045-0.012,6-0.017c4.047-0.014,8.162-0.234,12.197,0.023
		c1.864,0.119,3.823-0.135,5.7-0.133c1.926,0.002,3.81,0.103,5.743,0.026c3.714-0.144,7.514-0.003,11.213,0.03
		c1.66,0.016,2.67,0.193,2.652-1.697c-0.018-1.792,0.082-3.622-0.012-5.402c-0.211-4.033-0.234-8.195-0.082-12.23
		c0.129-3.46-0.224-6.993-0.063-10.474c0.052-1.132,0.066-2.27,0.068-3.402c0.002-1.095-0.219-2.225-0.103-3.322
		c0.337-3.167,0.081-6.939,0.01-9.815c-0.081-3.25,0.019-6.511,0.013-9.797c0-0.965,0.08-1.922,0.033-2.889
		c-0.041-0.902,0.055-1.771-0.01-2.655c-0.072-1.004-0.105-2.021-0.095-3.027c0.005-0.473,0.153-0.933-0.046-1.375
		c-0.205-0.454,0.229-0.732,0.08-1.1c-0.236-0.578,0.086-1.394,0.101-2.028c0.019-0.87-0.06-1.737-0.069-2.606
		c-0.025-1.907-0.173-3.657-0.107-5.536c0.152-3.82,0.223-7.649,0.141-11.484c-0.195-9.04-0.056-18.104-0.056-27.15
		c0-4.541-0.156-9.079-0.085-13.619c0.037-2.329,0.037-4.655,0.045-6.984C148.566,9.555,148.788,7.224,148.491,5.112 M142.249,6.547
		c-0.311,0.153-0.074,3.896-0.082,4.468c-0.022,1.896-0.02,3.793,0.064,5.688c0.182,4.089,0.08,8.21,0.055,12.305
		c-0.046,7.429,0.363,14.912-0.012,22.396c-0.088,1.76,0.196,3.525,0.063,5.266c-0.14,1.81-0.133,3.752-0.073,5.568
		c0.127,3.849-0.037,7.675,0.015,11.532c0.053,3.996,0.114,8.005,0.07,12.003c-0.02,1.737-0.178,3.646,0.044,5.349
		c0.17,1.302-0.583,3.131,0.017,4.345c-0.016,0.009-0.063,2.633-0.111,2.633c0.361,0.71,0.132,2.138,0.141,2.931
		c0.016,1.319-0.027,2.644-0.047,3.962c-0.068,4.791-0.083,9.54,0.007,14.319c0.062,3.329,0.067,6.722-0.034,10.033
		c-0.061,1.988-0.076,3.977-0.143,5.983c-0.041,1.229,0.068,2.455-0.018,3.682c-0.053,0.745-0.248,3.181,0.18,3.479
		c-0.141,0.238-2.113,0.001-2.523,0.02c-1.512,0.07-3.064-0.099-4.531,0.004c-1.908,0.136-3.869,0.043-5.789,0.104
		c-2.287,0.074-4.6,0.107-6.886-0.003c-3.768-0.182-7.526,0.096-11.291-0.094c-1.87-0.096-3.708,0.197-5.573,0.177
		c-1.715-0.021-3.578-0.276-5.279-0.068c-1.822,0.224-4.006,0.194-5.824,0.007c-1.729-0.179-3.607,0.029-5.355-0.003
		c-4.488-0.083-8.973-0.108-13.459-0.208c-8.823-0.192-17.659-0.046-26.483-0.082c-7.055-0.027-14.067,0.042-21.085-0.09
		c-1.494-0.027-3.04,0.021-4.56,0.037c-0.884,0.01-1.764-0.09-2.646-0.021c-0.679,0.053-1.481-0.27-2.118,0.083
		c-1.899,0-3.826-0.049-5.737-0.076c-2.065-0.03-4.15,0.272-6.196-0.127c0.463-1.659,0.124-3.579,0.078-5.274
		c-0.062-2.293-0.058-4.588-0.046-6.882c0.01-2.146,0.026-4.294,0.002-6.441c-0.022-2.018-0.164-4.104,0.004-6.106
		c0.141-1.687-0.069-3.509-0.061-5.216c0.011-2.246-0.052-4.491-0.033-6.737c0.038-4.508,0.151-9.015,0.141-13.522
		C7.124,88.448,7,85.279,7.138,81.612c0.075-1.998,0.149-4.004,0.031-5.959c0.059,0.104,0.09-0.698,0.019-0.852
		c0.217-0.958-0.037-2.044-0.014-3.021c0.052-2.182-0.037-4.37-0.041-6.552C7.127,61.451,7.3,57.71,7.209,53.919
		C7.1,49.517,7.247,45.11,7.257,40.711c0.011-4.555-0.102-9.11-0.078-13.666c0.022-4.236-0.304-8.656,0.149-12.867
		c0.192-1.779-0.116-3.658-0.039-5.468C7.313,8.152,7.231,7.6,7.256,7.043c0.004-0.09,0.157-0.366,0.152-0.429
		C7.392,6.41,6.948,6.175,6.97,6.031c1.097-0.095,2.44-0.054,3.625-0.067c1.448-0.016,3.023-0.17,4.493,0.011
		c2.991,0.364,5.716,0.061,8.698,0.07c7.345,0.025,14.55,0.019,21.924-0.05C59.22,5.87,72.531,6.406,85.961,6.199
		c2.431-0.038,4.863-0.011,7.293,0.006c2.254,0.017,4.635,0.201,6.875-0.032c2.262-0.235,4.553,0.125,6.82,0.01
		c2.295-0.117,4.582-0.166,6.887-0.088c4.986,0.17,10,0.041,14.99,0.021c2.479-0.011,4.957,0.014,7.432-0.004
		c1.058-0.007,2.105-0.152,3.164-0.123c0.906,0.026,1.932,0.324,2.799,0.004C142.224,6.177,142.232,6.362,142.249,6.547
		 M65.261,99.59c0.028,2.852,3.192,5.835,6.005,6.093c1.773,0.161-0.386,2.212-0.219,2.688c0.078,0.224,0.75,1.728,1.012,1.688
		c0.399-0.06,0.889-1.438,0.776-1.778c0.062,0.018,0.124,0.031,0.187,0.042c-0.109,0.052,0.469-1.064,0.633-1.265
		c0.529-0.644,0.832-0.962,1.557-1.353c1.289-0.693,2.646-1.321,3.865-2.135c1.231-0.821,2.31-1.908,2.729-3.369
		c0.218-0.757,0.503-1.576,0.139-2.34c-0.108-0.229-0.298-0.403-0.426-0.618c0.048-0.249-0.272-0.029-0.222,0
		c-0.107-0.257-0.485-0.193-0.59-0.477c-0.125-0.342,0.076-0.698-0.084-1.033c0.123-0.899-0.25-1.791-0.516-2.631
		c-0.417-1.321-1.074-2.598-2.238-3.412c-1.24-0.868-3.201-1.268-4.036-2.573c0.154-0.571-0.354-0.436-0.581-0.17
		c-0.327,0.383-0.644,0.852-0.835,1.319c-0.549-0.49-2.396,0.747-2.773,1.063c-1.051,0.88-1.699,2.002-2.234,3.243
		c-0.487,1.128-0.266,2.272-0.526,3.435c-0.152,0.677-1.113,1.061-1.31,1.839C65.528,98.031,65.362,99.537,65.261,99.59
		 M16.912,37.82c0.379,1.074,0.319,2.286,0.705,3.376c0.324,0.916,0.866,2.009,1.331,2.855c0.459,0.839,1.185,1.485,1.685,2.296
		c0.121,0.195,0.525,1.372,0.786,1.372c0.328-0.642,0.467-1.625,0.49-2.328c0.055-1.708,0.927-3.666,1.585-5.216
		c0.712-1.678,1.31-3.385,2.241-4.962c0.889-1.505,1.976-2.883,2.893-4.359c1.599-2.576,4.615-4.834,7.092-6.597
		c1.459-1.037,3.143-1.852,4.762-2.61c1.456-0.685,3.137-1.04,4.382-2.112c-2.132,0.444-4.159,0.072-6.29-0.074
		c-0.908-0.062-1.769-0.34-2.672-0.396c-0.574-0.035-1.806,0.367-2.089,0.22c-0.077,0.331-0.335,0.146-0.481,0.006
		c-0.279-0.267-0.33-0.581-0.271-0.973c-0.709-0.021-1.695,0.766-2.41,1.183c-0.867,0.506-1.803,1.016-2.56,1.682
		c-0.275,0.241-1.252,1.328-1.681,1.045c0.313-0.286-0.219-1.426-0.58-0.94c-0.587,0.79-1.11,1.612-1.669,2.42
		c-0.536,0.774-0.966,1.685-1.226,2.59c-0.149,0.521-0.272,2.064-1.096,1.946c-0.816-0.117-0.848-1.775-1.616-0.647
		c-0.566,0.831-0.841,1.759-1.111,2.714c-0.335,1.187-0.687,2.346-0.814,3.579c-0.053,0.513,0.308,1.856-0.114,2.229
		c-0.255-0.304-1.143-0.677-1.264-0.045C16.836,36.516,17.236,37.466,16.912,37.82 M124.549,86.042
		c-0.006-0.022-0.014-0.022-0.014-0.022L124.549,86.042z M134.059,95.468c0-1.203-0.583-2.322-0.998-3.421
		c-0.23-0.607-0.71-2.353-1.318-2.708c1.029,0,1.469-0.479,0.637-1.262c-1.032-0.969-2.125-1.907-3.394-2.554
		c-1.114-0.568-2.334-0.993-3.575-1.162c-0.613-0.084-2.262-0.421-2.74,0.139c2.137,1.246,3.498,3.412,4.82,5.39
		c0.485,0.726,0.852,1.672,1.133,2.491c0.18,0.524,0.515,1.046,0.555,1.608c0.017,0.239,0.156,1.12,0.289,1.303
		c-0.176,0.445,0.027,0.936,0.117,1.372c0.147,0.71-0.142,1.461-0.194,2.172c-0.103,1.364-0.259,2.403-0.886,3.688
		c-0.616,1.265-1.281,2.515-2.053,3.65c-0.25,0.367-1.08,1.789-1.556,1.824c0.052-0.484,0.429-0.791,0.601-1.119
		c0.389-0.744,0.902-1.412,1.266-2.172c0.461-0.963,0.742-1.929,1.134-2.896c1.246-3.073,0.533-6.775-0.917-9.654
		c-0.7-1.391-1.618-2.499-2.714-3.563c-0.285-0.276-2.068-2.317-2.499-2.132c0-0.654-3.02-1.754-3.469-1.816
		c-1.559-0.22-3.203-0.751-4.308-1.927c2.763-2.155,5.035-5.158,7.235-7.862c2.551-3.138,4.658-6.579,6.236-10.305
		c3.259-7.685,3.695-16.441,1.227-24.442c-0.439-1.426-1.204-2.99-2.16-4.144c-0.578-0.696-1.162-1.462-1.729-2.252
		c-0.538-0.749-1.321-1.262-1.762-2.041c-0.526,0-0.863-0.831-1.224-1.114c-0.755-0.594-1.569-1.136-2.205-1.864
		c-2.347-1.181-4.603-3.06-7.325-3.348c-2.002-0.213-3.793-0.522-5.839-0.269c-2.086,0.259-4.294,0.604-6.196,1.543
		c-1.533,0.757-2.949,1.731-4.506,2.438c0.852-1.294,2.518-2.163,3.856-2.821c0.817-0.403,1.612-0.859,2.461-1.197
		c0.808-0.32,1.651-0.357,2.466-0.627c3.832-1.265,7.479-0.957,11.296,0.248c3.882,1.226,6.88,3.581,9.642,6.504
		c1.425,1.507,2.838,3.051,3.858,4.869c0.38,0.677,0.556,1.447,0.903,2.097c0.136,0.254,0.786,1.129,0.695,1.411
		c0.035-0.043,0.069-0.088,0.104-0.133c0.01,0.15-0.113,0.335-0.046,0.482c0.142,0.013,0.224-0.069,0.248-0.247
		c0.071-0.353-0.151-0.903,0.22-0.161c-0.005-0.528,0.047-0.11-0.017-0.439c-0.113-0.596,0.178,0.008,0.188,0.018
		c-0.051-0.815,0.443-1.536,0.604-2.312c0.202-0.972,0.396-1.947,0.516-2.933c0.246-2.015,0.354-4.095-0.36-6.03
		c-0.426-1.152-0.901-2.72-1.635-3.729c-0.647-0.894-0.695,1.452-0.676,1.449c-0.335-0.026-1.121-1.338-1.344-1.605
		c-0.667-0.8-1.221-1.691-1.954-2.437c-0.778-0.791-1.658-1.557-2.597-2.15c-0.459-0.292-1.367-1.342-1.885-1.4
		c0.017,0.417,0.114,2.441-0.582,1.477c-0.408-0.564-1.201-0.848-1.81-1.217c-1.765-1.068-4.071-2.056-6.142-2.294
		c-1.019-0.116-0.918,0.137-0.606,0.888c0.28,0.672-1.489,0.048-1.767-0.001c-1.144-0.207-2.266-0.351-3.43-0.368
		c-0.547-0.009-3.471,0.145-3.471-0.259c-0.131-0.022-0.188,0.475-0.396,0.166c0.071-0.082,0.129-0.172,0.172-0.271
		c-0.027,0.035-0.512-0.002-0.407,0.159c0.079,0.051,0.153,0.107,0.226,0.17c-0.529,0,0.7,1.268,0.869,1.503
		c-0.199-0.11-0.396-0.224-0.593-0.342c-0.36,0.944-3.214,0.599-4.019,1.578c-1.074,0.247-2.317,0.683-3.219,1.321
		c-0.461,0.328-0.378,0.686,0.151,0.899c0.94,0.382,0.437,0.671-0.11,1.063c-1.313,0.94-2.521,2.271-3.58,3.452
		c-0.85,0.946,0.695,0.769,0.693,1.595c0,0.265-0.448,0.685-0.566,0.902c-0.271,0.494-0.47,1.027-0.766,1.508
		c-0.52,0.843-1.57,3.516-1.152,4.53c0.223,0.543,0.807-0.529,0.953-0.714c0.301-0.38,1.465-0.875,1.954-0.819
		c0.726,0.082,1.526-0.408,2.289-0.45c0.426-0.023,0.856,0.002,1.278-0.074c0.177,0.424-0.219,0.799-0.278,1.195
		c1.272,0.15,2.508-0.507,3.701-0.838c1.424-0.273,2.95-0.475,4.396-0.256c-0.113,0.303-0.787,1.062-0.227,1.093
		c-0.195,0.124-0.545,0.162-0.573,0.446c0.985,0.075,1.886-0.501,2.871-0.416c1.208,0.033,2.392,0.29,3.56,0.579
		c-0.465,0.388-0.569,0.995-0.965,1.133c-0.533,0.187,0.932,0.455,1.043,0.513c1.485,0.76,3.31,0.89,4.699,1.778
		c-0.291,0.363-1.503,0.706-1.652,1.04c1.274,0,2.594,1.543,3.728,2.068c1.483,0.688,2.978,0.959,4.548,1.347
		c1.383,0.341,2.479,0.308,3.126,1.685c0.761,1.621,1.245,3.387,1.353,5.175c0.201,3.336-0.135,6.771-0.963,10.005
		c-0.433,1.695-1.066,3.263-1.776,4.857c-0.741,1.667-1.366,3.416-2.476,4.888c-0.095,0.126-2.432,2.985-2.596,1.849
		c-0.213-1.477-0.205-2.839-0.736-4.277c-1.192-3.23-2.932-6.264-5.41-8.675c-2.443-2.378-5.225-4.454-7.898-6.563
		c-1.241-0.979-2.391-1.964-3.518-3.07c-0.989-0.969-2.313-2.029-2.604-3.461c1.894,1.643,3.62,3.496,5.753,4.841
		c2.23,1.407,4.657,2.799,6.665,4.516c1.825,1.56,3.433,3.378,4.979,5.199c0.768,0.904,1.425,1.75,2.041,2.761
		c0.518,0.846,1.416,1.656,1.416,2.721c0.994-1.067,1.179-3.033,1.27-4.427c0.086-1.333,0.094-2.685-0.096-4.01
		c-0.045-0.318-0.833-3.339-1.156-2.938c-0.188,0.231-0.232,0.551-0.426,0.78c-0.332,0.393-0.418-0.582-0.565-0.731
		c-0.899-0.918-1.323-2.294-2.155-3.302c-0.567-0.687-1.283-1.358-1.931-1.972c-1.288-1.222-0.394,0.673-1.016,1.328
		c-0.183-0.063-0.437-0.725-0.659-0.896c-0.618-0.479-1.175-1.095-1.732-1.645c-0.479-0.473-1.102-0.758-1.65-1.136
		c-0.393-0.307-0.846-0.893-1.395-0.893c-0.08,0.415-0.006,1.025,0.141,1.422c0.225,0.606-0.055,0.462-0.073,1.117
		c-0.267-0.147-0.12-0.606-0.242-0.83c-0.243-0.447-0.776-0.7-1.187-0.931c-0.764-0.428-1.494-1.113-2.237-1.604
		c-0.2-0.132-1.685-1.418-1.769-1.185c-0.178,0.494,0.223,1.06,0.162,1.56c-0.483,0-1.562-1.073-2.029-1.302
		c-1.031-0.505-2.191-0.813-3.17-1.412c-0.809-0.496-1.282-1.097-1.151,0.245c0.146,1.503,0.332,3,0.181,4.511
		c-0.459-0.42-0.729,0.005-1.035-0.157c0.34,0.765,0.854,1.921,0.979,2.75c0.15,1.009,0.802,1.961,0.816,3.021
		c-0.221-0.197-0.724,0.013-0.84,0c-0.095,0.437,0.58,1.37,0.774,1.743c0.408,0.782,0.778,1.521,1.205,2.27
		c0.344,0.601,0.526,1.286,0.882,1.876c0.292,0.485,0.904,0.577-0.107,0.854c-1.162,0.41,1.479,2.824,1.961,3.243
		c0.471,0.406,0.865,0.853,1.318,1.271c0.387,0.354,0.778,0.731,1.254,0.967c0.163,0.081,0.998,0.103,1.065,0.217
		c0.431,0.722-2.661,0.395-1.146,1.431c0.979,0.67,2.488,0.998,3.616,1.365c1.375,0.448,2.709,0.601,4.132,0.807
		c1.387,0.2,2.807,0.091,4.211,0.444c3.692,6.484-5.067,12.336-9.232,15.612c-0.667,0.524-3.256,1.639-2.82,2.663
		c0.428,1.011,0.776,2.141,1.15,3.11c0.188,0.487,0.723-0.424,0.878-0.524c0.415-0.027,1.231-0.892,1.547-1.156
		c1.235-1.038,3.219-1.725,4.651-1.778c1.416-0.055,2.824,0.233,4.197,0.272c1.221,0.041,1.461,1.495,1.486,2.406
		c0.042,1.564-0.346,3.115-0.117,4.685c0.082,0.56-0.087,1.072,0.049,1.627c0.147,0.61,0.86-0.371,1.144-0.404
		c-0.251,1.284-0.011,2.98,0.245,4.255c0.066,0.332-0.338,2.313-0.522,2.234c0.542,0.232,1.062-0.568,1.595-0.568
		c0.061,0.484-0.1,0.997-0.05,1.503c0.091,0.934,0.188,1.91-0.138,2.813c0.4,0.535,0.488-0.152,1.035,0.235
		c0.291,0.208-0.1,1.091-0.18,1.324c-0.424,1.217-0.986,2.358-1.528,3.516c-0.376,0.802-0.983,1.477-1.56,2.138
		c-0.343,0.394-1.406,1.191-1.229,1.675c0.832-0.109,1.69-1.047,2.509-1.345c0.829-0.301,1.573-0.883,2.407-1.166
		c1.56-0.528,2.995-1.621,4.386-2.538c0.537-0.354,0.639-0.738,1.031-1.165c0.6-0.651,1.296-1.174,1.787-1.93
		c0.324-0.497,0.475-1.104,0.892-1.553c0.272-0.295,0.442-0.718,0.558-1.097c0.064-0.202,0.103-0.409,0.111-0.621
		c-0.115-0.282,0.006-0.396,0.366-0.336c-0.003,0.383,0.583,0.944,0.948,0.566c0.234-0.245,0.281-1.049,0.371-1.373
		c0.357-1.292,0.58-3.086,0.367-4.415c0.121,0.196,0.188,0.073,0.201-0.37c0.039,0.05,0.895,0.477,0.987,0.477
		C134.215,96.895,134.301,95.468,134.059,95.468 M35.139,76.419V76.39V76.419z M43.11,85.151
		C43.11,85.151,43.116,85.151,43.11,85.151 M23.284,102.887c1.137,1.017,1.697,2.521,2.688,3.663c0.734,0.85,1.555,1.616,2.38,2.374
		c0.209,0.191,0.952,1.055,1.165,0.902c0.385-0.272,0.368-0.805,0.295-1.228c-0.14-0.821,0.29-0.725,1.021-0.795
		c0.648-0.063,1.151-0.429,1.711-0.739c0.422-0.235,0.914-0.469,1.337-0.601c0.345-0.105,0.601-0.541,0.224-0.821
		c-0.345-0.259-1.112-0.457-0.829-0.753c-0.116-0.234-0.54,0.038-0.611-0.33c-0.355-0.08-0.777-0.422-0.971-0.725
		c-0.111,0.034-1.806-0.852-1.819-0.913c0.113,0,0.986-0.729,1.162-0.844c-0.802-0.779-2.064-0.76-3.059-1.142
		c-0.673-0.258-0.545-0.81-0.571-1.485c-0.009-0.227,0.006-1.058-0.167-1.08c0.122-0.935,0.069-1.808,0.325-2.722
		c0.256-0.918,0.455-1.92,0.552-3.04c0.14,0.105,0.421,0.531,0.548,0.583c0.086-0.021,0.171-0.038,0.257-0.058
		c0.026,0.241,0.157,0.366,0.393,0.377c0.113-0.727,0.68-1.401,0.874-2.131c0.176-0.661,0.449-1.292,0.625-1.943
		c0.269-0.994,0.641-1.958,0.906-2.953c0.174-0.653,0.238-1.287,0.348-1.986c0.166-0.646,0.326-1.727,0.326-2.396
		c0.558-0.601,1.555-0.326,2.27-0.439c1.038-0.165,2.474,0.356,3.526,0.554c1.083,0.204,2.752,0.968,3.386,1.591
		c0.819,0.806,2.175,1.515,2.664,2.599c0.583,0.031,1.388-2.859,0.961-3.193c-1.046-0.817-1.729-2.144-2.736-3.052
		c-1.241-1.119-2.315-2.697-3.373-3.764c-2.092-2.11-3.682-4.182-3.89-7.265c-0.095-1.406-0.125-3.083,0.336-4.43
		c0.304-0.888,0.668-1.728,0.949-2.615c0.42-1.326,1.394-1.576,2.525-1.261c1.278,0.357,2.156,0.744,3.523,0.308
		c1.538-0.489,2.787-1.828,3.089-3.419c0.151-0.794,0.26-1.491,0.312-2.291c0.03-0.473,0.313-0.304,0.561-0.638
		c0.267-0.358,0.482-0.819,0.699-1.21c0.908-1.637,0.822-3.457,0.354-5.211c-0.178-0.669-0.604-1.373-0.931-1.983
		c-0.377-0.703,0.063-1.142-0.361-1.774c-0.205-0.308-1.463,0.47-1.789,0.555c-0.787,0.206-1.5-0.023-2.292,0.033
		c-1.296,0.095-2.566,0.644-3.509,1.521c-0.311,0.289-0.697,0.61-0.911,0.983c-0.372,0.651-0.685,0.67-1.482,0.849
		c-1.89,0.425-2.815,2.407-3.087,4.16c-0.257,1.657-0.189,3.237,0.465,4.796c0.618,1.472,1.64,2.248,1.074,3.993
		c-0.442,1.364-1.178,2.609-1.579,3.988c-0.132,0.451-0.63,0.887-1.017,1.073c-0.641,0.309-1.407-1.345-1.696-1.675
		c-1.224-1.399-1.837-3.349-2.501-5.056c-0.792-2.038-1.478-4.183-1.627-6.375c-0.093-1.366-0.536-4.081,0.569-5.11
		c1.083-1.007,2.821-1.498,4.13-2.144c1.46-0.719,2.941-1.442,4.211-2.472c0.281-0.228,1.622-1.005,1.282-1.459
		c-0.255-0.341-0.712-0.511-0.933-0.737c0.007-0.021,0.404-0.656,0.359-0.635c-0.034,0.025-0.066,0.054-0.099,0.082
		c0.375-0.106,0.563-1.229,0.886-1.323c0.688-0.2,1.438-1.441,1.832-1.994c0.39-0.547,1.074-1.221,1.321-1.848
		c0.34-0.861-0.913-0.244-1.149-0.581c0.366-0.357,0.477-1.229,0.61-1.694c0.167-0.583,0.691-1.072,1.015-1.576
		c0.75-1.164,1.719-1.814,2.609-2.814c-0.708-0.583-1.316-0.68-1.01-1.801c0.168-0.616,0.561-1.766,1.128-2.141
		c0.565-0.373,1.548-0.044,1.995-0.348c0.428-0.292,1.359-0.011,1.811,0.075c3.605,0.683,7.23,2.688,9.901,5.196
		c1.443,1.356,2.421,2.974,3.441,4.644c0.715,1.171,0.737-1.214,0.756-1.648c0.058-1.313-0.206-2.766-0.526-4.034
		c-0.534-2.118-1.681-4.486-3.103-6.155c-0.388-0.456-0.895-0.793-1.319-1.22c-0.403-0.403,1.359-1.003,1.338-1.33
		c-0.465-0.398-1.191-0.464-1.736-0.717c-0.909-0.421-1.866-0.565-2.842-0.757c-0.62-0.121-1.33-0.12-1.41-0.87
		c-0.063-0.59-0.155-1.047,0.027-1.616c-0.667-0.104-1.194,0.746-1.675,1.093c-0.728,0.523-1.417,1.102-2.179,1.576
		c-1.677,1.042-3.438,1.948-5.113,2.988c-2.824,1.754-5.863,3.316-8.24,5.623c-2.857,2.772-5.545,5.733-7.283,9.361
		c-1.604,3.347-2.428,6.789-2.943,10.421c-0.284,2-0.223,3.93-0.194,5.939c0.029,2.023,0.698,3.922,1.204,5.616
		c0.967,3.243,2.594,6.176,4.343,9.064c2.004,3.309,4.175,6.534,6.844,9.423c0.271,0.294,1.215,1.637,0.612,1.754
		c-1.273,0.246-2.825,0.354-4.272,0.608c-3.371,0.591-5.814,1.54-8.241,4.024c-0.828,0.85-2.192,2.066-2.429,3.276
		c-0.107,0.547-0.419,1.034-0.512,1.583c-0.145,0.849-0.283,1.697-0.424,2.547c-0.156,0.939-0.152,1.921-0.184,2.882
		c-0.032,0.986,0.17,2.033,0.415,2.985c0.281,1.096,0.871,2.179,1.074,3.272c-0.172-0.217-1.453-1.643-1.226-1.898
		c-0.029,0.034,0.007,0.188,0.029,0.223c-0.233-0.37-0.057-0.632-0.129-0.902c-0.087,0.012-0.173,0.001-0.256-0.031
		c-0.015-0.144,0.016-0.169,0.091-0.078c-0.468-1.131-0.774-2.339-0.889-3.551c-0.073-0.771-0.039-1.529-0.086-2.296
		c-0.012-0.208-0.171-1.476,0.089-1.271c-0.27-1.71,0.741-4.131,1.485-5.652c0.576-1.175,1.733-2.22,2.682-3.231
		c0.278-0.301,0.522-0.282,0.791-0.592c0.294-0.341,0.697-0.531,1.048-0.799c0.701-0.531,1.591-0.8,2.271-1.304
		c0.24-0.178,1.201-0.165,0.816-0.687c-0.154-0.374-1.239-0.577-1.595-0.64c-2.006-0.349-4.664-0.389-6.649,0.112
		c-0.438,0.111-2.281,0.273-1.925,0.842c0.584,0.938,0.088,1.267-0.298,2.057c-0.362,0.742-1.105,1.286-1.229,2.145
		c-0.607,0.907-0.9,1.916-1.415,2.858c-0.171,0.313-0.847,1.355-0.771,1.712c0.135,0.63,0.461,0.024,1.023,0.426
		c-0.666,1.831-0.92,3.908-0.565,5.834c0.149,0.807,0.439,1.596,0.522,2.413c0.136,1.34,0.248,0.375,0.842,0.229
		c-0.039,0.055-0.071,0.112-0.096,0.175c0.12,0.057,0.657-0.235,0.572-0.392c-0.003-0.005-0.705,0.044,0.043-0.188
		c-0.338,0.421,0.237-0.128,0.243-0.128c0.315,1.589,1.2,2.692,2.278,4.004C20.946,101.127,22.001,101.895,23.284,102.887
		 M93.133,100.199c0.531-0.648,2.193-1.241,1.795-2.267c-0.299-0.767-0.652-1.479-0.82-2.272c-0.178-0.84-0.469-1.259-1.145-0.532
		c-0.891,0.959-1.922,1.735-2.902,2.594c-1.053,0.921-2.01,2.033-2.984,3.029c-0.473,0.482-0.881,1.038-1.269,1.583
		c-0.207,0.29-0.692,0.565-0.954,0.823c-0.539,0.533-0.99,1.153-1.42,1.775c-0.959,1.389-1.823,2.751-2.898,4.053
		c-1.205,1.46-2.092,3.256-3.197,4.825c-1.03,1.465-1.94,2.961-2.774,4.553c-0.298,0.569-0.378,1.149-0.683,1.722
		c-0.233,0.438-0.334,0.823-0.452,1.308c-0.098,0.212-0.18,0.429-0.248,0.651c0,0.265,0.223,0.506,0.102,0.773
		c-0.939-0.781-1.169-3.021-1.625-4.117c-0.855-2.057-1.896-4.024-2.839-6.041c-1.646-3.521-3.739-6.845-5.984-10.014
		c-1.018-1.438-2.021-2.91-3.18-4.232c-0.591-0.673-1.147-1.374-1.737-2.049c-0.568-0.649-1.529-1.389-1.869-2.189
		c-0.96-1.05-1.879-2.252-2.959-3.202c-0.663-0.584-0.859-0.492-1.115,0.421c-0.224,0.798-1.074,1.777-0.954,2.648
		c0.077,0.553,1.369,1.581,1.744,1.999c0.863,0.965,1.632,2.008,2.481,2.979c1.986,2.27,3.983,4.729,5.476,7.363
		c1.525,2.694,3.282,5.201,4.526,8.085c1.594,3.691,3,7.259,3.644,11.242c0.19,1.179,0.493,2.362,0.444,3.563
		c-0.021,0.52-0.025,1.038-0.048,1.557c-0.032,0.701,0.895,0.565,1.376,0.634c0.502,0.071,5.883,0.409,5.969-0.313
		c0.484-4.063,0.604-8.333,2.568-12.065c1.646-3.126,2.998-6.468,5.235-9.2c1.24-1.514,2.565-3.017,3.745-4.579
		c0.785-1.043,1.813-1.871,2.627-2.892C91.151,101.986,92.517,100.199,93.133,100.199 M30.364,102.425
		C30.342,102.49,30.359,102.448,30.364,102.425 M139.542,13.792c-0.068-0.902-0.06-1.811-0.043-2.716
		c0.012-0.572,0.299-1.962-0.33-2.024c-1.768-0.175-3.584-0.057-5.361-0.047c-3.756,0.02-7.495-0.309-11.25-0.242
		c-3.749,0.064-7.506,0.088-11.256,0.051c-1.168-0.012-2.33-0.03-3.498-0.023c-0.829,0.005-1.655-0.044-2.483-0.05
		c-0.483-0.004-1.668,0.232-2.101-0.019c0.463-0.282-0.453,0.257-0.311-0.093c-0.197-0.124-0.779,0.177-1.037,0.146
		c-0.291,0.024-0.365-0.043-0.224-0.205c-0.756,0,0.581,0.125-0.586,0.154c-0.604,0.015-3.317,0.356-3.347-0.106
		c-0.223-0.077-0.389,0.25-0.621,0.217c-0.254-0.036-0.512-0.014-0.822-0.092c-0.668-0.17-1.736,0.003-2.479,0.003
		c-2.308,0-4.613-0.04-6.912,0.066c-2.868,0.134-5.803,0.173-8.674,0.124c-1.303-0.022-2.582-0.104-3.886-0.081
		c-0.667,0.011-1.343-0.111-2.007-0.042c-0.273,0.026-1.065,0.112-1.315,0c0.028-0.203,0.783-0.316-0.403-0.155
		C70.724,8.719,70.859,8.74,71,8.721c-0.394,0.14-1.494-0.193-1.681-0.104c-0.208,0.255-0.565,0.209-0.831,0.104
		c0.083-0.161,0.392,0.041,0.518-0.022c-0.114-0.275-0.925,0.068-1.096,0.069c-1.235,0.001-2.469,0.009-3.704,0.017
		c-2.404,0.016-4.808,0.028-7.212,0.025c-1.608-0.002-3.227-0.036-4.825,0.034c-0.404,0.019-0.791-0.077-1.16-0.042
		c-0.576,0.056-1.133,0.234-1.315-0.172c-0.209,0,0.011,0.211-0.072,0.253c-0.764-0.171-1.873-0.125-2.597-0.055
		c-1.693,0.165-3.407-0.06-5.101,0.074c-4.255,0.337-8.835-0.271-12.922-0.271c-0.476,0.283-1.037,0.029-1.581,0.029
		c-0.056,0.229-1.292,0.058-1.524,0.041c-0.838-0.061-2.272,0.33-3.081-0.073c-0.303,0.321-1.295,0.029-1.859,0.098
		c-1.034,0.126-2.076,0.036-3.113,0.046c-2.089,0.021-4.209-0.046-6.289,0.174c-0.233,0.025-1.3-0.134-1.328-0.033
		c-0.108,0.384,0.013,0.789-0.055,1.172c-0.122,0.68-0.004,1.315,0.019,1.991c0.036,1.079-0.082,2.191-0.105,3.272
		c-0.188,8.853,0.019,17.714-0.156,26.57c-0.085,4.308-0.081,8.616-0.115,12.924c-0.016,2.002,0.042,3.999,0.09,6
		c0.045,1.914-0.136,3.815-0.039,5.729c0.233,4.576-0.217,9.329,0.135,13.893c0.065,0.851,0.036,8.058,0.015,8.06
		c-0.269,0.555-0.069,1.324-0.081,1.915c-0.008,0.431,0.195,1.541,0.031,1.901c-0.117,0.257-0.051,0.707-0.06,0.979
		C9.85,95.1,9.838,96.882,9.82,98.663c-0.043,4.32-0.067,8.643-0.062,12.962c0.009,6.217,0.203,12.488,0.061,18.659
		c-0.043,1.862-0.027,3.747,0.035,5.609c0.03,0.92,0.196,1.897,0.073,2.813c-0.119,0.875,0.936,0.673,1.649,0.624
		c1.844-0.125,3.813,0.045,5.694,0.069c0.529,0.006,1.056,0.118,1.586,0.129c0.515,0.011,0.936-0.183,1.47-0.145
		c1.22,0.086,2.435,0.199,3.655,0.187c0.725-0.008,1.447,0.045,2.17,0.036c0.304-0.003,1.265-0.315,1.488-0.004
		c0.048,0.066,1.039-0.043,1.073-0.043c1.011-0.011,2.014,0.085,3.029,0.054c2.188-0.068,4.387,0.097,6.577,0.087
		c8.236-0.033,16.585-0.388,24.804,0.038c3.71,0.192,7.481,0.018,11.2,0.021c3.431,0.005,7.134,0.038,10.242,0.073
		c1.326,0.016,2.871-0.174,4.065-0.174c0.055,0.201,2.162,0.064,2.381,0.018c0.853-0.182,2.094,0.056,3.098,0.016
		c1.217-0.048,1.615,0.017,2.467,0.104c0.161-0.125,1.324-0.364,1.557,0.11c0.312,0.014,0.793-0.141,1.24-0.111
		c0.869,0.059,1.746,0.053,2.615,0.059c2.223,0.015,4.443-0.004,6.666,0.002c6.697,0.017,13.217,0.168,19.947-0.129
		c2.189-0.099,4.373-0.163,6.563-0.183c1.074-0.009,2.147-0.029,3.221-0.056c0.375-0.009,1.15,0.208,1.252-0.308
		c0.088-0.448-0.063-0.945-0.102-1.384c-0.18-1.96,0.033-4.047,0.055-6.018c0.021-2.063-0.01-4.147,0-6.354
		c0.017-4.176,0.166-8.403,0.143-12.562c-0.085-15.315-0.118-30.604-0.206-45.922c-0.05-8.664,0.095-17.346,0.171-26.01
		c0.04-4.458-0.052-8.9-0.125-13.356C139.497,22.983,139.883,18.382,139.542,13.792 M136.985,12.294
		c-0.301,3.428,0.536,7.009,0.014,10.396c-0.25,1.632,0.056,3.558,0.049,5.217c-0.008,2.306,0.146,4.604,0.154,6.908
		c0.02,4.512-0.213,9-0.104,13.517c0.051,2.143-0.005,4.29,0.079,6.431c0.089,2.271-0.092,4.494-0.077,6.75
		c0.048,8.094-0.104,16.184,0.026,24.253c0.121,7.43-0.188,14.755,0.096,22.165c0.06,1.564,0.141,3.213,0.013,4.767
		c-0.052,0.64,0.095,1.188,0.14,1.827c0.049,0.715-0.225,1.444-0.192,2.19c0.081,1.874,0.044,3.788-0.04,5.663
		c-0.096,2.118,0.08,4.211-0.029,6.325c-0.044,0.853,0.143,1.667,0.123,2.517c-0.021,0.938-0.129,1.867-0.115,2.808
		c0.014,0.864,0.058,1.746,0.012,2.608c-0.031,0.599-1.191,0.294-1.549,0.287c-1.373-0.021-2.74-0.018-4.115,0.028
		c-2.025,0.068-4.256,0.354-6.256-0.029c-0.688,0.303-1.596,0.031-2.32,0.051c-0.975,0.024-1.928-0.037-2.898-0.04
		c-1.225-0.005-2.562-0.233-3.777-0.117c-2.406,0.23-5.442,0.152-8.032,0.062c-2.142-0.076-4.257-0.104-6.397-0.067
		c-2.162,0.035-4.427,0.153-6.565,0.061c-2.459-0.106-5.067-0.232-7.265-0.157c-3.99,0.14-8.108,0.186-12.093-0.006
		c-1.444-0.067-3.036,0.004-4.517,0.009c-1.12,0.005-2.237,0.017-3.359-0.004c-5.736-0.1-11.459,0.104-17.145-0.138
		c-1.693-0.072-3.385,0.077-5.093,0.092c-2.243,0.02-4.482,0.007-6.726,0.049c-3.884,0.072-7.792-0.287-11.675-0.044
		c-2.253,0.143-4.681,0.045-6.977-0.051c-0.837-0.035-1.586-0.049-2.431-0.045c-0.628,0.004-1.25,0.065-1.879,0.04
		c-0.593-0.024-1.746-0.327-2.296-0.072c-1.481,0.76-1.072-2.083-1.074-2.762c-0.008-2.375-0.261-4.788-0.112-7.158
		c0.1-1.586-0.023-3.189-0.053-4.764c-0.041-2.153-0.133-4.31-0.163-6.47c-0.053-3.883-0.045-7.764-0.122-11.642
		c-0.036-1.805,0.05-3.648,0.05-5.471c0-1.094-0.031-2.188,0.002-3.282c0.009-0.291,0.064-1.532,0.019-1.373
		c0.214-0.356-0.04-0.983-0.066-1.369c-0.037-0.534,0.293-1.099,0.164-1.627c-0.239-0.977-0.049-1.987-0.107-3.008
		c-0.088-1.535,0.031-3.398,0.12-4.74c0.145-2.171,0.007-4.371,0.045-6.548c0.077-4.393,0.166-8.646,0.093-13.004
		c-0.137-8.178-0.019-16.364-0.017-24.542c0-2.137,0.015-4.274-0.02-6.411c-0.036-2.225-0.081-4.498,0.148-6.71
		c0.119-1.148,0.042-2.39,0.051-3.551c0.012-1.63,0.223-3.272,0.157-4.9c-0.057-1.416,0.003-2.814,0.003-4.227
		c0.012-0.358,0.017-0.972,0.116-1.314c0.053-0.183,0.73-0.146,0.878-0.196c0.527-0.111,1.064,0.031,1.594,0.024
		c0.809-0.01,1.613-0.107,2.421-0.133c1.647-0.051,3.298,0.023,4.946,0.002c3.067-0.038,6.168,0.056,9.228-0.113
		c0.481-0.025,3.1,0.258,3.291-0.04c0.152-0.236,1.893,0.003,2.213,0.01c0.705,0.014,1.549,0.213,2.239,0.02
		c0.002-0.037-0.023-0.053-0.075-0.048c0.181,0.179,1.874,0.049,2.22,0.059c1.048,0.03,2.097,0.025,3.146,0.014
		c2.13-0.025,4.255-0.03,6.385,0c4.368,0.063,8.737,0.058,13.105,0.035c7.91-0.043,15.806-0.007,23.704-0.005
		c3.084,0,6.264-0.09,9.418-0.116c4.377-0.037,8.754-0.029,13.133,0.034c3.941,0.058,7.91,0.394,11.871,0.284
		c2.051-0.056,4.104-0.189,6.154-0.121c0.328,0.012,3.821,0.383,3.881-0.128c-0.225,0.345,0.303-0.091,0.184-0.091
		c0.087,0.08,0.092,0.169,0.018,0.268c0.889,0.1,1.816,0.213,2.707,0.065c0.362-0.06,0.769-0.067,1.123,0.038
		C137.273,12.041,137.034,11.616,136.985,12.294"/>
</g>
</svg>
